<mxfile host="Electron" agent="Mozilla/5.0 (Windows NT 10.0; Win64; x64) AppleWebKit/537.36 (KHTML, like Gecko) draw.io/24.7.17 Chrome/128.0.6613.36 Electron/32.0.1 Safari/537.36" version="24.7.17">
  <diagram name="第 1 页" id="X2tqb4AYu3Iy1FnDKtmc">
    <mxGraphModel dx="1420" dy="822" grid="1" gridSize="10" guides="1" tooltips="1" connect="1" arrows="1" fold="1" page="1" pageScale="1" pageWidth="827" pageHeight="1169" math="0" shadow="0">
      <root>
        <mxCell id="0" />
        <mxCell id="1" parent="0" />
        <mxCell id="hJpwC1_y1HGuKVH-Ip-f-7" style="edgeStyle=orthogonalEdgeStyle;rounded=0;orthogonalLoop=1;jettySize=auto;html=1;" edge="1" parent="1" source="hJpwC1_y1HGuKVH-Ip-f-1">
          <mxGeometry relative="1" as="geometry">
            <mxPoint x="140" y="230" as="targetPoint" />
          </mxGeometry>
        </mxCell>
        <mxCell id="hJpwC1_y1HGuKVH-Ip-f-9" style="edgeStyle=orthogonalEdgeStyle;rounded=0;orthogonalLoop=1;jettySize=auto;html=1;" edge="1" parent="1" source="hJpwC1_y1HGuKVH-Ip-f-1">
          <mxGeometry relative="1" as="geometry">
            <mxPoint x="140" y="310" as="targetPoint" />
          </mxGeometry>
        </mxCell>
        <mxCell id="hJpwC1_y1HGuKVH-Ip-f-1" value="1" style="rounded=0;whiteSpace=wrap;html=1;" vertex="1" parent="1">
          <mxGeometry x="100" y="250" width="80" height="40" as="geometry" />
        </mxCell>
        <mxCell id="hJpwC1_y1HGuKVH-Ip-f-2" value="1" style="rounded=0;whiteSpace=wrap;html=1;" vertex="1" parent="1">
          <mxGeometry x="200" y="250" width="80" height="40" as="geometry" />
        </mxCell>
        <mxCell id="hJpwC1_y1HGuKVH-Ip-f-14" style="edgeStyle=orthogonalEdgeStyle;rounded=0;orthogonalLoop=1;jettySize=auto;html=1;" edge="1" parent="1" source="hJpwC1_y1HGuKVH-Ip-f-3">
          <mxGeometry relative="1" as="geometry">
            <mxPoint x="340" y="310" as="targetPoint" />
          </mxGeometry>
        </mxCell>
        <mxCell id="hJpwC1_y1HGuKVH-Ip-f-3" value="1" style="rounded=0;whiteSpace=wrap;html=1;" vertex="1" parent="1">
          <mxGeometry x="300" y="250" width="80" height="40" as="geometry" />
        </mxCell>
        <mxCell id="hJpwC1_y1HGuKVH-Ip-f-4" value="2" style="rounded=0;whiteSpace=wrap;html=1;" vertex="1" parent="1">
          <mxGeometry x="400" y="250" width="80" height="40" as="geometry" />
        </mxCell>
        <mxCell id="hJpwC1_y1HGuKVH-Ip-f-5" value="2" style="rounded=0;whiteSpace=wrap;html=1;" vertex="1" parent="1">
          <mxGeometry x="500" y="250" width="80" height="40" as="geometry" />
        </mxCell>
        <mxCell id="hJpwC1_y1HGuKVH-Ip-f-6" value="1" style="rounded=0;whiteSpace=wrap;html=1;" vertex="1" parent="1">
          <mxGeometry x="600" y="250" width="80" height="40" as="geometry" />
        </mxCell>
        <mxCell id="hJpwC1_y1HGuKVH-Ip-f-8" value="i" style="text;html=1;align=center;verticalAlign=middle;resizable=0;points=[];autosize=1;strokeColor=none;fillColor=none;" vertex="1" parent="1">
          <mxGeometry x="125" y="200" width="30" height="30" as="geometry" />
        </mxCell>
        <mxCell id="hJpwC1_y1HGuKVH-Ip-f-10" value="j" style="text;html=1;align=center;verticalAlign=middle;resizable=0;points=[];autosize=1;fillColor=#f5f5f5;fontColor=#333333;strokeColor=#666666;" vertex="1" parent="1">
          <mxGeometry x="125" y="310" width="30" height="30" as="geometry" />
        </mxCell>
        <mxCell id="hJpwC1_y1HGuKVH-Ip-f-11" value="1.让j不断后移动，直到最后一个1，这样左右边界就确定了，一共有3个1&lt;div&gt;在结果拼接出来“31”&lt;/div&gt;" style="text;html=1;align=center;verticalAlign=middle;resizable=0;points=[];autosize=1;strokeColor=none;fillColor=none;" vertex="1" parent="1">
          <mxGeometry x="125" y="355" width="400" height="40" as="geometry" />
        </mxCell>
        <mxCell id="hJpwC1_y1HGuKVH-Ip-f-15" value="j" style="text;html=1;align=center;verticalAlign=middle;resizable=0;points=[];autosize=1;strokeColor=#d6b656;fillColor=#fff2cc;" vertex="1" parent="1">
          <mxGeometry x="325" y="310" width="30" height="30" as="geometry" />
        </mxCell>
        <mxCell id="hJpwC1_y1HGuKVH-Ip-f-18" value="1" style="rounded=0;whiteSpace=wrap;html=1;" vertex="1" parent="1">
          <mxGeometry x="100" y="460" width="80" height="40" as="geometry" />
        </mxCell>
        <mxCell id="hJpwC1_y1HGuKVH-Ip-f-19" value="1" style="rounded=0;whiteSpace=wrap;html=1;" vertex="1" parent="1">
          <mxGeometry x="200" y="460" width="80" height="40" as="geometry" />
        </mxCell>
        <mxCell id="hJpwC1_y1HGuKVH-Ip-f-21" value="1" style="rounded=0;whiteSpace=wrap;html=1;" vertex="1" parent="1">
          <mxGeometry x="300" y="460" width="80" height="40" as="geometry" />
        </mxCell>
        <mxCell id="hJpwC1_y1HGuKVH-Ip-f-28" style="edgeStyle=orthogonalEdgeStyle;rounded=0;orthogonalLoop=1;jettySize=auto;html=1;" edge="1" parent="1" source="hJpwC1_y1HGuKVH-Ip-f-22">
          <mxGeometry relative="1" as="geometry">
            <mxPoint x="440" y="440" as="targetPoint" />
          </mxGeometry>
        </mxCell>
        <mxCell id="hJpwC1_y1HGuKVH-Ip-f-30" style="edgeStyle=orthogonalEdgeStyle;rounded=0;orthogonalLoop=1;jettySize=auto;html=1;" edge="1" parent="1" source="hJpwC1_y1HGuKVH-Ip-f-22">
          <mxGeometry relative="1" as="geometry">
            <mxPoint x="440" y="520" as="targetPoint" />
          </mxGeometry>
        </mxCell>
        <mxCell id="hJpwC1_y1HGuKVH-Ip-f-22" value="2" style="rounded=0;whiteSpace=wrap;html=1;" vertex="1" parent="1">
          <mxGeometry x="400" y="460" width="80" height="40" as="geometry" />
        </mxCell>
        <mxCell id="hJpwC1_y1HGuKVH-Ip-f-33" style="edgeStyle=orthogonalEdgeStyle;rounded=0;orthogonalLoop=1;jettySize=auto;html=1;" edge="1" parent="1" source="hJpwC1_y1HGuKVH-Ip-f-23">
          <mxGeometry relative="1" as="geometry">
            <mxPoint x="540" y="520" as="targetPoint" />
          </mxGeometry>
        </mxCell>
        <mxCell id="hJpwC1_y1HGuKVH-Ip-f-23" value="2" style="rounded=0;whiteSpace=wrap;html=1;" vertex="1" parent="1">
          <mxGeometry x="500" y="460" width="80" height="40" as="geometry" />
        </mxCell>
        <mxCell id="hJpwC1_y1HGuKVH-Ip-f-24" value="1" style="rounded=0;whiteSpace=wrap;html=1;" vertex="1" parent="1">
          <mxGeometry x="600" y="460" width="80" height="40" as="geometry" />
        </mxCell>
        <mxCell id="hJpwC1_y1HGuKVH-Ip-f-29" value="i" style="text;html=1;align=center;verticalAlign=middle;resizable=0;points=[];autosize=1;strokeColor=none;fillColor=none;" vertex="1" parent="1">
          <mxGeometry x="425" y="408" width="30" height="30" as="geometry" />
        </mxCell>
        <mxCell id="hJpwC1_y1HGuKVH-Ip-f-31" value="j" style="text;html=1;align=center;verticalAlign=middle;resizable=0;points=[];autosize=1;fillColor=#f5f5f5;fontColor=#333333;strokeColor=#666666;" vertex="1" parent="1">
          <mxGeometry x="425" y="520" width="30" height="30" as="geometry" />
        </mxCell>
        <mxCell id="hJpwC1_y1HGuKVH-Ip-f-32" value="2.让i移动到2，直到最后一个2，这样左右边界就确定了，一共有2个2&lt;div&gt;在结果拼接出来“22”&lt;/div&gt;" style="text;html=1;align=center;verticalAlign=middle;resizable=0;points=[];autosize=1;strokeColor=none;fillColor=none;" vertex="1" parent="1">
          <mxGeometry x="125" y="585" width="390" height="40" as="geometry" />
        </mxCell>
        <mxCell id="hJpwC1_y1HGuKVH-Ip-f-34" value="j" style="text;html=1;align=center;verticalAlign=middle;resizable=0;points=[];autosize=1;strokeColor=#d6b656;fillColor=#fff2cc;" vertex="1" parent="1">
          <mxGeometry x="525" y="520" width="30" height="30" as="geometry" />
        </mxCell>
        <mxCell id="hJpwC1_y1HGuKVH-Ip-f-35" value="31" style="text;html=1;align=center;verticalAlign=middle;resizable=0;points=[];autosize=1;strokeColor=none;fillColor=none;" vertex="1" parent="1">
          <mxGeometry x="610" y="378" width="40" height="30" as="geometry" />
        </mxCell>
        <mxCell id="hJpwC1_y1HGuKVH-Ip-f-36" value="3122" style="text;html=1;align=center;verticalAlign=middle;resizable=0;points=[];autosize=1;strokeColor=none;fillColor=none;" vertex="1" parent="1">
          <mxGeometry x="605" y="595" width="50" height="30" as="geometry" />
        </mxCell>
        <mxCell id="hJpwC1_y1HGuKVH-Ip-f-37" value="1" style="rounded=0;whiteSpace=wrap;html=1;" vertex="1" parent="1">
          <mxGeometry x="100" y="720.03" width="80" height="40" as="geometry" />
        </mxCell>
        <mxCell id="hJpwC1_y1HGuKVH-Ip-f-38" value="1" style="rounded=0;whiteSpace=wrap;html=1;" vertex="1" parent="1">
          <mxGeometry x="200" y="720.03" width="80" height="40" as="geometry" />
        </mxCell>
        <mxCell id="hJpwC1_y1HGuKVH-Ip-f-39" value="1" style="rounded=0;whiteSpace=wrap;html=1;" vertex="1" parent="1">
          <mxGeometry x="300" y="720.03" width="80" height="40" as="geometry" />
        </mxCell>
        <mxCell id="hJpwC1_y1HGuKVH-Ip-f-42" value="2" style="rounded=0;whiteSpace=wrap;html=1;" vertex="1" parent="1">
          <mxGeometry x="400" y="720.03" width="80" height="40" as="geometry" />
        </mxCell>
        <mxCell id="hJpwC1_y1HGuKVH-Ip-f-44" value="2" style="rounded=0;whiteSpace=wrap;html=1;" vertex="1" parent="1">
          <mxGeometry x="500" y="720.03" width="80" height="40" as="geometry" />
        </mxCell>
        <mxCell id="hJpwC1_y1HGuKVH-Ip-f-48" style="edgeStyle=orthogonalEdgeStyle;rounded=0;orthogonalLoop=1;jettySize=auto;html=1;" edge="1" parent="1" source="hJpwC1_y1HGuKVH-Ip-f-45">
          <mxGeometry relative="1" as="geometry">
            <mxPoint x="639.9999999999998" y="700" as="targetPoint" />
          </mxGeometry>
        </mxCell>
        <mxCell id="hJpwC1_y1HGuKVH-Ip-f-50" style="edgeStyle=orthogonalEdgeStyle;rounded=0;orthogonalLoop=1;jettySize=auto;html=1;" edge="1" parent="1" source="hJpwC1_y1HGuKVH-Ip-f-45">
          <mxGeometry relative="1" as="geometry">
            <mxPoint x="639.9999999999998" y="780" as="targetPoint" />
          </mxGeometry>
        </mxCell>
        <mxCell id="hJpwC1_y1HGuKVH-Ip-f-45" value="1" style="rounded=0;whiteSpace=wrap;html=1;" vertex="1" parent="1">
          <mxGeometry x="600" y="720.03" width="80" height="40" as="geometry" />
        </mxCell>
        <mxCell id="hJpwC1_y1HGuKVH-Ip-f-49" value="i" style="text;html=1;align=center;verticalAlign=middle;resizable=0;points=[];autosize=1;strokeColor=none;fillColor=none;" vertex="1" parent="1">
          <mxGeometry x="625" y="670" width="30" height="30" as="geometry" />
        </mxCell>
        <mxCell id="hJpwC1_y1HGuKVH-Ip-f-51" value="j" style="text;html=1;align=center;verticalAlign=middle;resizable=0;points=[];autosize=1;fillColor=#f5f5f5;fontColor=#333333;strokeColor=#666666;" vertex="1" parent="1">
          <mxGeometry x="625" y="780" width="30" height="30" as="geometry" />
        </mxCell>
        <mxCell id="hJpwC1_y1HGuKVH-Ip-f-52" value="3.让i移动到最后一个1，一共有个1&lt;div&gt;j已经到达边界了，在结果拼接出来“11”&lt;/div&gt;" style="text;html=1;align=center;verticalAlign=middle;resizable=0;points=[];autosize=1;strokeColor=none;fillColor=none;" vertex="1" parent="1">
          <mxGeometry x="125" y="820" width="230" height="40" as="geometry" />
        </mxCell>
        <mxCell id="hJpwC1_y1HGuKVH-Ip-f-53" value="312211" style="text;html=1;align=center;verticalAlign=middle;resizable=0;points=[];autosize=1;strokeColor=none;fillColor=none;" vertex="1" parent="1">
          <mxGeometry x="605" y="830" width="60" height="30" as="geometry" />
        </mxCell>
      </root>
    </mxGraphModel>
  </diagram>
</mxfile>
